<?xml version="1.0" encoding="utf-8"?>
<!-- Generator: Adobe Illustrator 25.0.0, SVG Export Plug-In . SVG Version: 6.00 Build 0)  -->
<svg version="1.1" id="Layer_1" xmlns="http://www.w3.org/2000/svg" xmlns:xlink="http://www.w3.org/1999/xlink" x="0px" y="0px"
	 viewBox="0 0 24 24" style="enable-background:new 0 0 24 24;" xml:space="preserve">
<style type="text/css">
	.st0{fill:#FFFFFF;}
</style>
<path class="st0" d="M12,2c3.2,0,6,2.6,6,5.6c0,3.1-2.5,7.1-6,12.7c-3.5-5.5-6-9.6-6-12.7C6,4.6,8.8,2,12,2 M12,0C7.8,0,4,3.4,4,7.6
	c0,4.2,3.5,9.2,8,16.4c4.5-7.2,8-12.2,8-16.4C20,3.4,16.2,0,12,0z M12,11c-1.7,0-3-1.3-3-3s1.3-3,3-3s3,1.3,3,3S13.7,11,12,11z"/>
</svg>
